<svg width="752" height="50" viewBox="0 0 752 50" fill="none" xmlns="http://www.w3.org/2000/svg">
<path d="M48.6264 25.1086C48.6264 38.2137 37.9342 48.8437 24.737 48.8437C11.5398 48.8437 0.847611 38.2137 0.847611 25.1086C0.847611 12.0035 11.5398 1.3734 24.737 1.3734C37.9342 1.3734 48.6264 12.0035 48.6264 25.1086Z" fill="#E7D2D2" stroke="#2E4ADC" stroke-width="1.163"/>
<path d="M126.7 25.1085C126.7 38.2136 116.008 48.8437 102.811 48.8437C89.6135 48.8437 78.9213 38.2136 78.9213 25.1085C78.9213 12.0034 89.6135 1.37337 102.811 1.37337C116.008 1.37337 126.7 12.0034 126.7 25.1085Z" fill="#E7D2D2" stroke="#2E4ADC" stroke-width="1.163"/>
<path d="M204.774 25.1085C204.774 38.2136 194.082 48.8437 180.884 48.8437C167.687 48.8437 156.995 38.2136 156.995 25.1085C156.995 12.0034 167.687 1.37337 180.884 1.37337C194.082 1.37337 204.774 12.0034 204.774 25.1085Z" fill="#E7D2D2" stroke="#2E4ADC" stroke-width="1.163"/>
<path d="M282.848 25.1085C282.848 38.2136 272.155 48.8437 258.958 48.8437C245.761 48.8437 235.069 38.2136 235.069 25.1085C235.069 12.0034 245.761 1.37337 258.958 1.37337C272.155 1.37337 282.848 12.0034 282.848 25.1085Z" fill="#E7D2D2" stroke="#2E4ADC" stroke-width="1.163"/>
<path d="M360.922 25.1085C360.922 38.2136 350.23 48.8437 337.032 48.8437C323.835 48.8437 313.143 38.2136 313.143 25.1085C313.143 12.0034 323.835 1.37337 337.032 1.37337C350.23 1.37337 360.922 12.0034 360.922 25.1085Z" fill="#E7D2D2" stroke="#2E4ADC" stroke-width="1.163"/>
<path d="M438.996 25.1085C438.996 38.2136 428.303 48.8437 415.106 48.8437C401.909 48.8437 391.217 38.2136 391.217 25.1085C391.217 12.0034 401.909 1.37337 415.106 1.37337C428.303 1.37337 438.996 12.0034 438.996 25.1085Z" fill="#E7D2D2" stroke="#2E4ADC" stroke-width="1.163"/>
<path d="M517.069 25.1085C517.069 38.2136 506.377 48.8437 493.18 48.8437C479.983 48.8437 469.29 38.2136 469.29 25.1085C469.29 12.0034 479.983 1.37337 493.18 1.37337C506.377 1.37337 517.069 12.0034 517.069 25.1085Z" fill="#E7D2D2" stroke="#2E4ADC" stroke-width="1.163"/>
<path d="M595.143 25.1085C595.143 38.2136 584.451 48.8437 571.254 48.8437C558.056 48.8437 547.364 38.2136 547.364 25.1085C547.364 12.0034 558.056 1.37337 571.254 1.37337C584.451 1.37337 595.143 12.0034 595.143 25.1085Z" fill="#E7D2D2" stroke="#2E4ADC" stroke-width="1.163"/>
<path d="M673.217 25.1085C673.217 38.2136 662.525 48.8437 649.327 48.8437C636.13 48.8437 625.438 38.2136 625.438 25.1085C625.438 12.0034 636.13 1.37337 649.327 1.37337C662.525 1.37337 673.217 12.0034 673.217 25.1085Z" fill="#E7D2D2" stroke="#2E4ADC" stroke-width="1.163"/>
<path d="M751.29 25.1085C751.29 38.2136 740.598 48.8437 727.401 48.8437C714.204 48.8437 703.512 38.2136 703.512 25.1085C703.512 12.0034 714.204 1.37337 727.401 1.37337C740.598 1.37337 751.29 12.0034 751.29 25.1085Z" fill="#E7D2D2" stroke="#2E4ADC" stroke-width="1.163"/>
</svg>
