<svg width="752" height="50" viewBox="0 0 752 50" fill="none" xmlns="http://www.w3.org/2000/svg">
<path d="M48.6264 25.1086C48.6264 38.2137 37.9342 48.8437 24.737 48.8437C11.5398 48.8437 0.847611 38.2137 0.847611 25.1086C0.847611 12.0035 11.5398 1.3734 24.737 1.3734C37.9342 1.3734 48.6264 12.0035 48.6264 25.1086Z" fill="#E7D2D2" stroke="#2E4ADC" stroke-width="1.163"/>
<path d="M126.7 25.1086C126.7 38.2137 116.008 48.8437 102.811 48.8437C89.6135 48.8437 78.9213 38.2137 78.9213 25.1086C78.9213 12.0034 89.6135 1.37338 102.811 1.37338C116.008 1.37338 126.7 12.0034 126.7 25.1086Z" fill="#E7D2D2" stroke="#2E4ADC" stroke-width="1.163"/>
<path d="M204.774 25.1086C204.774 38.2137 194.082 48.8437 180.884 48.8437C167.687 48.8437 156.995 38.2137 156.995 25.1086C156.995 12.0034 167.687 1.37338 180.884 1.37338C194.082 1.37338 204.774 12.0034 204.774 25.1086Z" fill="#E7D2D2" stroke="#2E4ADC" stroke-width="1.163"/>
<path d="M282.848 25.1086C282.848 38.2137 272.155 48.8437 258.958 48.8437C245.761 48.8437 235.069 38.2137 235.069 25.1086C235.069 12.0034 245.761 1.37338 258.958 1.37338C272.155 1.37338 282.848 12.0034 282.848 25.1086Z" fill="#E7D2D2" stroke="#2E4ADC" stroke-width="1.163"/>
<path d="M360.922 25.1086C360.922 38.2137 350.23 48.8437 337.032 48.8437C323.835 48.8437 313.143 38.2137 313.143 25.1086C313.143 12.0034 323.835 1.37338 337.032 1.37338C350.23 1.37338 360.922 12.0034 360.922 25.1086Z" fill="#E7D2D2" stroke="#2E4ADC" stroke-width="1.163"/>
<path d="M438.996 25.1086C438.996 38.2137 428.303 48.8437 415.106 48.8437C401.909 48.8437 391.217 38.2137 391.217 25.1086C391.217 12.0034 401.909 1.37338 415.106 1.37338C428.303 1.37338 438.996 12.0034 438.996 25.1086Z" fill="#E7D2D2" stroke="#2E4ADC" stroke-width="1.163"/>
<path d="M517.069 25.1086C517.069 38.2137 506.377 48.8437 493.18 48.8437C479.983 48.8437 469.29 38.2137 469.29 25.1086C469.29 12.0034 479.983 1.37338 493.18 1.37338C506.377 1.37338 517.069 12.0034 517.069 25.1086Z" fill="#E7D2D2" stroke="#2E4ADC" stroke-width="1.163"/>
<path d="M595.143 25.1086C595.143 38.2137 584.451 48.8437 571.254 48.8437C558.056 48.8437 547.364 38.2137 547.364 25.1086C547.364 12.0034 558.056 1.37338 571.254 1.37338C584.451 1.37338 595.143 12.0034 595.143 25.1086Z" fill="#E7D2D2" stroke="#2E4ADC" stroke-width="1.163"/>
<path d="M673.217 25.1086C673.217 38.2137 662.525 48.8437 649.327 48.8437C636.13 48.8437 625.438 38.2137 625.438 25.1086C625.438 12.0034 636.13 1.37338 649.327 1.37338C662.525 1.37338 673.217 12.0034 673.217 25.1086Z" fill="#E7D2D2" stroke="#2E4ADC" stroke-width="1.163"/>
<path d="M751.29 25.1086C751.29 38.2137 740.598 48.8437 727.401 48.8437C714.204 48.8437 703.512 38.2137 703.512 25.1086C703.512 12.0034 714.204 1.37338 727.401 1.37338C740.598 1.37338 751.29 12.0034 751.29 25.1086Z" fill="#E7D2D2" stroke="#2E4ADC" stroke-width="1.163"/>
</svg>
