<svg width="12" height="18" viewBox="0 0 12 18" fill="none" xmlns="http://www.w3.org/2000/svg">
<path d="M0 4.69364C0 2.61568 1.59109 0.883776 3.6616 0.707978L7.6616 0.368355C9.99584 0.170164 12 2.01137 12 4.35401V13.3941C12 15.8262 9.84762 17.6954 7.43955 17.3547L3.43954 16.7886C1.46659 16.5094 0 14.8207 0 12.8281V4.69364Z" fill="#727272"/>
<path d="M0.521484 9.40525C0.521484 8.6504 1.06526 8.00532 1.80921 7.8776L2.24951 7.80201C3.25499 7.62939 4.17366 8.40379 4.17366 9.42398C4.17366 10.4994 3.15903 11.2859 2.11756 11.0177L1.68494 10.9063C1.00012 10.7299 0.521484 10.1124 0.521484 9.40525Z" fill="#C0C0C0"/>
</svg>
